<?xml version="1.0" encoding="UTF-8"?>
<svg id="Ebene_1" xmlns="http://www.w3.org/2000/svg" version="1.1" viewBox="0 0 397 70">
  <!-- Generator: Adobe Illustrator 29.0.1, SVG Export Plug-In . SVG Version: 2.1.0 Build 192)  -->
  <defs>
    <style>
      .st0 {
        fill: #e46c09;
      }

      .st1 {
        fill: #fff;
      }

      .st2 {
        fill: #646464;
      }
    </style>
  </defs>
  <g>
    <rect class="st0" x="183.1" y="1" width="213.5" height="68"/>
    <g>
      <path class="st1" d="M196.9,11.6h-3.3v-2h9v2h-3.3v8.9h-2.4v-8.9Z"/>
      <path class="st1" d="M203.8,9.6h2.2v4.1h0c.6-.9,1.5-1.3,2.3-1.3,2.3,0,2.9,1.3,2.9,3.3v4.9h-2.2v-4.5c0-1.3-.4-2-1.4-2s-1.7.7-1.7,2.3v4.2h-2.2v-11Z"/>
      <path class="st1" d="M214.9,17.1c0,1.4.7,2,2,2s1.6-.5,1.7-1h1.9c-.6,1.9-1.9,2.7-3.7,2.7s-4.1-1.7-4.1-4.2,1.6-4.2,4.1-4.2,4,2.3,3.9,4.7h-5.7ZM218.4,15.8c-.2-1.1-.7-1.7-1.7-1.7s-1.8,1.1-1.8,1.7h3.6Z"/>
      <path class="st1" d="M222,12.6h2.1v1.5h0c.4-1,1.4-1.7,2.5-1.7s.3,0,.5,0v2c-.2,0-.5,0-.8,0-1.6,0-2.2,1.1-2.2,2.6v3.6h-2.2v-7.9Z"/>
      <path class="st1" d="M228.2,12.6h2.1v1.1h0c.6-.8,1.4-1.3,2.4-1.3s1.9.4,2.3,1.3c.5-.7,1.3-1.3,2.4-1.3,1.7,0,2.9.8,2.9,2.8v5.3h-2.2v-4.5c0-1.1,0-1.9-1.3-1.9s-1.5,1-1.5,2v4.4h-2.2v-4.5c0-.9,0-2-1.3-2s-1.5.3-1.5,1.8v4.6h-2.2v-7.9Z"/>
      <path class="st1" d="M242.2,15.1c.1-2,2-2.7,3.7-2.7s3.5.4,3.5,2.3v4.1c0,.7,0,1.4.3,1.8h-2.2c0-.2-.1-.5-.2-.8-.7.7-1.7,1-2.7,1-1.5,0-2.7-.8-2.7-2.4,0-3.6,5.4-1.7,5.3-3.5,0-.9-.6-1.1-1.4-1.1s-1.4.3-1.4,1.2h-2.2ZM247.2,16.7c-.4.3-1.1.3-1.8.5-.7.1-1.3.4-1.3,1.2s.6,1,1.3,1c1.7,0,1.8-1.3,1.8-1.8v-.8Z"/>
      <path class="st1" d="M251.3,9.6h2.2v11h-2.2v-11Z"/>
      <path class="st1" d="M265.1,20.6h-2.7l-3.6-11h2.5l2.4,7.7h0l2.5-7.7h2.5l-3.6,11Z"/>
      <path class="st1" d="M268.7,15.1c.1-2,2-2.7,3.7-2.7s3.5.4,3.5,2.3v4.1c0,.7,0,1.4.3,1.8h-2.2c0-.2-.1-.5-.2-.8-.7.7-1.7,1-2.7,1-1.5,0-2.7-.8-2.7-2.4,0-3.6,5.4-1.7,5.3-3.5,0-.9-.6-1.1-1.4-1.1s-1.4.3-1.4,1.2h-2.2ZM273.7,16.7c-.4.3-1.1.3-1.8.5-.7.1-1.3.4-1.3,1.2s.6,1,1.3,1c1.7,0,1.8-1.3,1.8-1.8v-.8Z"/>
      <path class="st1" d="M277.8,9.6h2.2v11h-2.2v-11Z"/>
      <path class="st1" d="M284.1,11.4h-2.2v-1.8h2.2v1.8ZM281.9,12.6h2.2v7.9h-2.2v-7.9Z"/>
      <path class="st1" d="M291.7,19.6h0c-.5.9-1.4,1.2-2.4,1.2-2.4,0-3.6-2-3.6-4.3s1.2-4.1,3.5-4.1,1.9.4,2.4,1.2h0v-4h2.2v11h-2.1v-1ZM289.8,14.1c-1.4,0-1.9,1.2-1.9,2.5s.6,2.6,1.9,2.6,1.9-1.3,1.9-2.6-.5-2.5-1.9-2.5Z"/>
      <path class="st1" d="M295.4,15.1c.1-2,2-2.7,3.7-2.7s3.5.4,3.5,2.3v4.1c0,.7,0,1.4.3,1.8h-2.2c0-.2-.1-.5-.2-.8-.7.7-1.7,1-2.7,1-1.5,0-2.7-.8-2.7-2.4,0-3.6,5.4-1.7,5.3-3.5,0-.9-.6-1.1-1.4-1.1s-1.4.3-1.4,1.2h-2.2ZM300.5,16.7c-.4.3-1.1.3-1.8.5-.7.1-1.3.4-1.3,1.2s.6,1,1.3,1c1.7,0,1.8-1.3,1.8-1.8v-.8Z"/>
      <path class="st1" d="M307.3,12.6h1.6v1.5h-1.6v3.9c0,.7.2.9.9.9s.5,0,.7,0v1.7c-.4,0-.8,0-1.3,0-1.4,0-2.5-.3-2.5-1.9v-4.7h-1.3v-1.5h1.3v-2.4h2.2v2.4Z"/>
      <path class="st1" d="M312.3,11.4h-2.2v-1.8h2.2v1.8ZM310.1,12.6h2.2v7.9h-2.2v-7.9Z"/>
      <path class="st1" d="M318.1,12.4c2.5,0,4.1,1.7,4.1,4.2s-1.6,4.2-4.1,4.2-4.1-1.7-4.1-4.2,1.6-4.2,4.1-4.2ZM318.1,19.2c1.5,0,1.9-1.3,1.9-2.5s-.4-2.6-1.9-2.6-1.9,1.3-1.9,2.6.4,2.5,1.9,2.5Z"/>
      <path class="st1" d="M323.7,12.6h2.1v1.1h0c.6-.9,1.5-1.3,2.4-1.3,2.3,0,2.9,1.3,2.9,3.3v4.9h-2.2v-4.5c0-1.3-.4-2-1.4-2s-1.7.7-1.7,2.3v4.2h-2.2v-7.9Z"/>
      <path class="st1" d="M194.5,29.4h8.2v2h-5.8v2.4h5.3v1.9h-5.3v2.7h5.9v2h-8.3v-11Z"/>
      <path class="st1" d="M204.4,32.4h2.1v1.1h0c.6-.9,1.5-1.3,2.4-1.3,2.3,0,2.9,1.3,2.9,3.3v4.9h-2.2v-4.5c0-1.3-.4-2-1.4-2s-1.7.7-1.7,2.3v4.2h-2.2v-7.9Z"/>
      <path class="st1" d="M218,40.4h-2.4l-2.7-7.9h2.3l1.7,5.4h0l1.7-5.4h2.2l-2.7,7.9Z"/>
      <path class="st1" d="M224,31.2h-2.2v-1.8h2.2v1.8ZM221.8,32.4h2.2v7.9h-2.2v-7.9Z"/>
      <path class="st1" d="M225.9,32.4h2.1v1.5h0c.4-1,1.4-1.7,2.5-1.7s.3,0,.5,0v2c-.2,0-.5,0-.8,0-1.6,0-2.2,1.1-2.2,2.6v3.6h-2.2v-7.9Z"/>
      <path class="st1" d="M235.6,32.2c2.5,0,4.1,1.7,4.1,4.2s-1.6,4.2-4.1,4.2-4.1-1.7-4.1-4.2,1.6-4.2,4.1-4.2ZM235.6,38.9c1.5,0,1.9-1.3,1.9-2.5s-.4-2.6-1.9-2.6-1.9,1.3-1.9,2.6.4,2.5,1.9,2.5Z"/>
      <path class="st1" d="M241.3,32.4h2.1v1.1h0c.6-.9,1.5-1.3,2.4-1.3,2.3,0,2.9,1.3,2.9,3.3v4.9h-2.2v-4.5c0-1.3-.4-2-1.4-2s-1.7.7-1.7,2.3v4.2h-2.2v-7.9Z"/>
      <path class="st1" d="M250.6,32.4h2.1v1.1h0c.6-.8,1.4-1.3,2.4-1.3s1.9.4,2.3,1.3c.5-.7,1.3-1.3,2.4-1.3,1.7,0,2.9.8,2.9,2.8v5.3h-2.2v-4.5c0-1.1,0-1.9-1.3-1.9s-1.5,1-1.5,2v4.4h-2.2v-4.5c0-.9,0-2-1.3-2s-1.5.3-1.5,1.8v4.6h-2.2v-7.9Z"/>
      <path class="st1" d="M266.5,36.9c0,1.4.7,2,2,2s1.6-.5,1.7-1h1.9c-.6,1.9-1.9,2.7-3.7,2.7s-4.1-1.7-4.1-4.2,1.6-4.2,4.1-4.2,4,2.3,3.9,4.7h-5.7ZM270,35.5c-.2-1.1-.7-1.7-1.7-1.7s-1.8,1.1-1.8,1.7h3.6Z"/>
      <path class="st1" d="M273.6,32.4h2.1v1.1h0c.6-.9,1.5-1.3,2.4-1.3,2.3,0,2.9,1.3,2.9,3.3v4.9h-2.2v-4.5c0-1.3-.4-2-1.4-2s-1.7.7-1.7,2.3v4.2h-2.2v-7.9Z"/>
      <path class="st1" d="M285.7,32.4h1.6v1.5h-1.6v3.9c0,.7.2.9.9.9s.5,0,.7,0v1.7c-.4,0-.8,0-1.3,0-1.4,0-2.5-.3-2.5-1.9v-4.7h-1.3v-1.5h1.3v-2.4h2.2v2.4Z"/>
      <path class="st1" d="M288.4,34.9c.1-2,2-2.7,3.7-2.7s3.5.4,3.5,2.3v4.1c0,.7,0,1.4.3,1.8h-2.2c0-.2-.1-.5-.2-.8-.7.7-1.7,1-2.7,1-1.5,0-2.7-.8-2.7-2.4,0-3.6,5.4-1.7,5.3-3.5,0-.9-.6-1.1-1.4-1.1s-1.4.3-1.4,1.2h-2.2ZM293.4,36.5c-.4.3-1.1.3-1.8.5-.7.1-1.3.4-1.3,1.2s.6,1,1.3,1c1.7,0,1.8-1.3,1.8-1.8v-.8Z"/>
      <path class="st1" d="M297.5,29.4h2.2v11h-2.2v-11Z"/>
      <path class="st1" d="M306.2,29.4h3.4l2.6,7.5h0l2.4-7.5h3.4v11h-2.3v-7.8h0l-2.7,7.8h-1.9l-2.7-7.7h0v7.7h-2.3v-11Z"/>
      <path class="st1" d="M323.9,32.2c2.5,0,4.1,1.7,4.1,4.2s-1.6,4.2-4.1,4.2-4.1-1.7-4.1-4.2,1.6-4.2,4.1-4.2ZM323.9,38.9c1.5,0,1.9-1.3,1.9-2.5s-.4-2.6-1.9-2.6-1.9,1.3-1.9,2.6.4,2.5,1.9,2.5Z"/>
      <path class="st1" d="M329.6,32.4h2.1v1.1h0c.6-.9,1.5-1.3,2.4-1.3,2.3,0,2.9,1.3,2.9,3.3v4.9h-2.2v-4.5c0-1.3-.4-2-1.4-2s-1.7.7-1.7,2.3v4.2h-2.2v-7.9Z"/>
      <path class="st1" d="M341.1,31.2h-2.2v-1.8h2.2v1.8ZM339,32.4h2.2v7.9h-2.2v-7.9Z"/>
      <path class="st1" d="M345.8,32.4h1.6v1.5h-1.6v3.9c0,.7.2.9.9.9s.5,0,.7,0v1.7c-.4,0-.8,0-1.3,0-1.4,0-2.5-.3-2.5-1.9v-4.7h-1.3v-1.5h1.3v-2.4h2.2v2.4Z"/>
      <path class="st1" d="M352.4,32.2c2.5,0,4.1,1.7,4.1,4.2s-1.6,4.2-4.1,4.2-4.1-1.7-4.1-4.2,1.6-4.2,4.1-4.2ZM352.4,38.9c1.5,0,1.9-1.3,1.9-2.5s-.4-2.6-1.9-2.6-1.9,1.3-1.9,2.6.4,2.5,1.9,2.5Z"/>
      <path class="st1" d="M358.1,32.4h2.1v1.5h0c.4-1,1.4-1.7,2.5-1.7s.3,0,.5,0v2c-.2,0-.5,0-.8,0-1.6,0-2.2,1.1-2.2,2.6v3.6h-2.2v-7.9Z"/>
      <path class="st1" d="M366.5,31.2h-2.2v-1.8h2.2v1.8ZM364.3,32.4h2.2v7.9h-2.2v-7.9Z"/>
      <path class="st1" d="M368.4,32.4h2.1v1.1h0c.6-.9,1.5-1.3,2.4-1.3,2.3,0,2.9,1.3,2.9,3.3v4.9h-2.2v-4.5c0-1.3-.4-2-1.4-2s-1.7.7-1.7,2.3v4.2h-2.2v-7.9Z"/>
      <path class="st1" d="M385.3,39.8c0,1.3-.5,3.5-4.1,3.5s-3.4-.8-3.5-2.6h2.2c.2.8.8,1.1,1.6,1.1,1.2,0,1.8-.8,1.8-2v-1h0c-.5.8-1.4,1.2-2.4,1.2-2.4,0-3.4-1.8-3.4-4s1.2-3.9,3.4-3.9,1.8.4,2.4,1.3h0v-1.1h2.1v7.4ZM383.2,36.3c0-1.3-.4-2.4-1.9-2.4s-1.8,1.1-1.8,2.3.4,2.4,1.8,2.4,1.9-1.1,1.9-2.2Z"/>
      <path class="st1" d="M201.8,52.8c-.2-1.1-1.2-1.9-2.4-1.9-2.2,0-3,1.8-3,3.8s.8,3.7,3,3.7,2.3-1,2.5-2.5h2.3c-.2,2.8-2.1,4.5-4.8,4.5s-5.4-2.5-5.4-5.7,2-5.8,5.4-5.8,4.4,1.4,4.7,4h-2.3Z"/>
      <path class="st1" d="M209.7,52c2.5,0,4.1,1.7,4.1,4.2s-1.6,4.2-4.1,4.2-4.1-1.7-4.1-4.2,1.6-4.2,4.1-4.2ZM209.7,58.7c1.5,0,1.9-1.3,1.9-2.5s-.4-2.6-1.9-2.6-1.9,1.3-1.9,2.6.4,2.5,1.9,2.5Z"/>
      <path class="st1" d="M215.4,49.2h2.2v11h-2.2v-11Z"/>
      <path class="st1" d="M225.1,59.1h0c-.5.9-1.4,1.2-2.4,1.2-2.4,0-3.6-2-3.6-4.3s1.2-4.1,3.5-4.1,1.9.4,2.4,1.2h0v-4h2.2v11h-2.1v-1ZM223.2,53.6c-1.4,0-1.9,1.2-1.9,2.5s.6,2.6,1.9,2.6,1.9-1.3,1.9-2.6-.5-2.5-1.9-2.5Z"/>
      <path class="st1" d="M241,52.8c-.2-1.1-1.2-1.9-2.4-1.9-2.2,0-3,1.8-3,3.8s.8,3.7,3,3.7,2.3-1,2.5-2.5h2.3c-.2,2.8-2.1,4.5-4.8,4.5s-5.4-2.5-5.4-5.7,2-5.8,5.4-5.8,4.4,1.4,4.7,4h-2.3Z"/>
      <path class="st1" d="M245,49.2h2.2v4.1h0c.6-.9,1.5-1.3,2.3-1.3,2.3,0,2.9,1.3,2.9,3.3v4.9h-2.2v-4.5c0-1.3-.4-2-1.4-2s-1.7.7-1.7,2.3v4.2h-2.2v-11Z"/>
      <path class="st1" d="M254.2,54.6c.1-2,2-2.7,3.7-2.7s3.5.4,3.5,2.3v4.1c0,.7,0,1.4.3,1.8h-2.2c0-.2-.1-.5-.2-.8-.7.7-1.7,1-2.7,1-1.5,0-2.7-.8-2.7-2.4,0-3.6,5.4-1.7,5.3-3.5,0-.9-.6-1.1-1.4-1.1s-1.4.3-1.4,1.2h-2.2ZM259.2,56.2c-.4.3-1.1.3-1.8.5-.7.1-1.3.4-1.3,1.2s.6,1,1.3,1c1.7,0,1.8-1.3,1.8-1.8v-.8Z"/>
      <path class="st1" d="M265.5,51h-2.2v-1.8h2.2v1.8ZM263.3,52.2h2.2v7.9h-2.2v-7.9Z"/>
      <path class="st1" d="M267.3,52.2h2.1v1.1h0c.6-.9,1.5-1.3,2.4-1.3,2.3,0,2.9,1.3,2.9,3.3v4.9h-2.2v-4.5c0-1.3-.4-2-1.4-2s-1.7.7-1.7,2.3v4.2h-2.2v-7.9Z"/>
    </g>
  </g>
  <g>
    <g>
      <path class="st2" d="M2.2,66.8c0,.2.2.3.4.5.2.1.4.2.6.3.2,0,.5,0,.7,0s.3,0,.5,0c.2,0,.4,0,.5-.2.2,0,.3-.2.4-.3.1-.1.2-.3.2-.5s0-.4-.2-.5c-.1-.1-.3-.3-.6-.3s-.5-.2-.8-.2-.6-.1-.9-.2c-.3,0-.6-.2-.9-.3-.3-.1-.6-.3-.8-.4s-.4-.4-.6-.7c-.1-.3-.2-.6-.2-1s0-.8.3-1.1c.2-.3.4-.6.7-.8.3-.2.6-.4,1-.5.4-.1.7-.2,1.1-.2s.8,0,1.2.1c.4,0,.7.3,1.1.5.3.2.6.5.7.8.2.3.3.7.3,1.2h-1.7c0-.2,0-.4-.2-.6,0-.2-.2-.3-.4-.4-.1,0-.3-.2-.5-.2s-.4,0-.6,0-.3,0-.4,0c-.1,0-.3,0-.4.2-.1,0-.2.2-.3.3,0,.1-.1.3-.1.4s0,.3,0,.4c0,.1.2.2.4.3.2,0,.4.2.7.3.3,0,.7.2,1.2.3.2,0,.4,0,.6.2s.5.2.8.4.5.4.7.7c.2.3.3.7.3,1.1s0,.7-.2,1c-.1.3-.4.6-.6.8-.3.2-.6.4-1.1.5-.4.1-.9.2-1.5.2s-.9,0-1.3-.2-.8-.3-1.1-.5c-.3-.2-.6-.5-.8-.9-.2-.4-.3-.8-.3-1.3h1.7c0,.3,0,.5.1.7Z"/>
      <path class="st2" d="M14.8,68.2c-.6.5-1.5.8-2.6.8s-2-.3-2.6-.8-.9-1.4-.9-2.5v-5.1h1.8v5.1c0,.2,0,.4,0,.7s.1.4.2.6c.1.2.3.3.5.4.2.1.5.2.9.2.6,0,1.1-.1,1.3-.4.2-.3.4-.7.4-1.4v-5.1h1.8v5.1c0,1.1-.3,1.9-.9,2.5Z"/>
      <path class="st2" d="M21.6,60.6c.4,0,.7,0,1.1.1s.6.2.8.3c.2.2.4.4.5.6.1.3.2.6.2,1s0,.8-.3,1c-.2.3-.5.5-.8.7.5.1.9.4,1.1.8.2.4.4.8.4,1.3s0,.8-.2,1.1c-.2.3-.4.6-.7.7-.3.2-.6.3-.9.4s-.7.1-1.1.1h-4v-8.2h3.9ZM21.4,63.9c.3,0,.6,0,.8-.2.2-.2.3-.4.3-.7s0-.3-.1-.5c0-.1-.2-.2-.3-.3-.1,0-.2-.1-.4-.1s-.3,0-.5,0h-1.7v1.9h1.8ZM21.5,67.4c.2,0,.3,0,.5,0,.2,0,.3,0,.4-.2s.2-.2.3-.3c0-.1.1-.3.1-.5,0-.4-.1-.7-.4-.9-.2-.2-.6-.3-.9-.3h-2v2.3h1.9Z"/>
      <path class="st2" d="M27.7,66.8c0,.2.2.3.4.5.2.1.4.2.6.3.2,0,.5,0,.7,0s.3,0,.5,0c.2,0,.4,0,.5-.2.2,0,.3-.2.4-.3.1-.1.2-.3.2-.5s0-.4-.2-.5c-.1-.1-.3-.3-.6-.3s-.5-.2-.8-.2-.6-.1-.9-.2c-.3,0-.6-.2-.9-.3-.3-.1-.6-.3-.8-.4s-.4-.4-.6-.7c-.1-.3-.2-.6-.2-1s0-.8.3-1.1c.2-.3.4-.6.7-.8.3-.2.6-.4,1-.5.4-.1.7-.2,1.1-.2s.8,0,1.2.1c.4,0,.7.3,1.1.5.3.2.6.5.7.8.2.3.3.7.3,1.2h-1.7c0-.2,0-.4-.2-.6,0-.2-.2-.3-.4-.4-.1,0-.3-.2-.5-.2s-.4,0-.6,0-.3,0-.4,0c-.1,0-.3,0-.4.2-.1,0-.2.2-.3.3,0,.1-.1.3-.1.4s0,.3,0,.4c0,.1.2.2.4.3.2,0,.4.2.7.3.3,0,.7.2,1.2.3.2,0,.4,0,.6.2s.5.2.8.4.5.4.7.7c.2.3.3.7.3,1.1s0,.7-.2,1c-.1.3-.4.6-.6.8-.3.2-.6.4-1.1.5-.4.1-.9.2-1.5.2s-.9,0-1.3-.2-.8-.3-1.1-.5c-.3-.2-.6-.5-.8-.9-.2-.4-.3-.8-.3-1.3h1.7c0,.3,0,.5.1.7Z"/>
      <path class="st2" d="M36.1,60.6v8.2h-1.8v-8.2h1.8Z"/>
      <path class="st2" d="M41.7,60.6c.5,0,1,0,1.5.3.5.2.9.4,1.2.8.3.3.6.8.8,1.3.2.5.3,1.1.3,1.8s0,1.2-.2,1.7c-.2.5-.4.9-.7,1.3s-.7.7-1.2.9c-.5.2-1,.3-1.6.3h-3.5v-8.2h3.5ZM41.5,67.3c.3,0,.5,0,.8-.1.2,0,.5-.2.7-.4.2-.2.3-.5.5-.8.1-.3.2-.7.2-1.2s0-.8-.1-1.1-.2-.6-.4-.9-.4-.4-.7-.5c-.3-.1-.7-.2-1.1-.2h-1.3v5.2h1.6Z"/>
      <path class="st2" d="M48.9,60.6v8.2h-1.8v-8.2h1.8Z"/>
      <path class="st2" d="M55.1,60.6l3.1,8.2h-1.9l-.6-1.8h-3.1l-.6,1.8h-1.8l3.1-8.2h1.9ZM55.2,65.6l-1-3h0l-1.1,3h2.1Z"/>
      <path class="st2" d="M63.7,60.6c.4,0,.7,0,1,.2s.5.3.8.5c.2.2.4.4.5.7.1.3.2.6.2.9,0,.5-.1.9-.3,1.3s-.5.6-1,.8h0c.2,0,.4.2.6.3.1.1.3.3.4.4,0,.2.2.4.2.6,0,.2,0,.4,0,.6,0,.1,0,.3,0,.5,0,.2,0,.4,0,.5,0,.2,0,.4,0,.5,0,.2.1.3.2.4h-1.8c-.1-.3-.2-.6-.2-.9s0-.7-.1-1c0-.4-.2-.7-.4-.9s-.5-.3-1-.3h-1.8v3.2h-1.8v-8.2h4.4ZM63.1,64.3c.4,0,.7,0,.9-.3.2-.2.3-.5.3-.9s-.1-.7-.3-.9c-.2-.2-.5-.3-.9-.3h-2v2.3h2Z"/>
      <path class="st2" d="M66.8,60.6h2l1.9,3.2,1.9-3.2h2l-3,5.1v3.2h-1.8v-3.2l-3-5Z"/>
      <path class="st2" d="M79.4,63c.2-.5.4-1,.8-1.4s.8-.7,1.3-.9c.5-.2,1.1-.3,1.7-.3s1.2.1,1.7.3c.5.2.9.5,1.3.9.3.4.6.8.8,1.4.2.5.3,1.1.3,1.7s0,1.2-.3,1.7c-.2.5-.4,1-.8,1.4-.3.4-.8.7-1.3.9s-1.1.3-1.7.3-1.2-.1-1.7-.3-.9-.5-1.3-.9c-.3-.4-.6-.8-.8-1.4-.2-.5-.3-1.1-.3-1.7s0-1.2.3-1.7ZM81,65.7c0,.3.2.6.4.9.2.3.4.5.7.6.3.2.6.2,1,.2s.8,0,1-.2c.3-.2.5-.4.7-.6.2-.3.3-.6.4-.9,0-.3.1-.7.1-1s0-.7-.1-1c0-.3-.2-.6-.4-.9-.2-.3-.4-.5-.7-.6-.3-.2-.6-.2-1-.2s-.8,0-1,.2c-.3.2-.5.4-.7.6-.2.3-.3.6-.4.9,0,.3-.1.7-.1,1s0,.7.1,1Z"/>
      <path class="st2" d="M94.6,60.6v1.5h-4v1.9h3.4v1.4h-3.4v3.4h-1.8v-8.2h5.8Z"/>
      <path class="st2" d="M103.9,60.6l3.1,8.2h-1.9l-.6-1.8h-3.1l-.6,1.8h-1.8l3.1-8.2h1.9ZM104,65.6l-1-3h0l-1.1,3h2.1Z"/>
      <path class="st2" d="M110.7,60.6l1.9,5.7h0l1.8-5.7h2.5v8.2h-1.7v-5.8h0l-2,5.8h-1.4l-2-5.8h0v5.8h-1.7v-8.2h2.5Z"/>
      <path class="st2" d="M122.8,60.6c.5,0,1,0,1.3.2s.7.3.9.6.4.5.5.8c.1.3.2.6.2,1s0,.7-.2,1c-.1.3-.3.6-.5.8-.2.2-.5.4-.9.6s-.8.2-1.3.2h-1.9v2.9h-1.8v-8.2h3.7ZM122.3,64.5c.2,0,.4,0,.6,0,.2,0,.4,0,.5-.2.1,0,.3-.2.4-.4,0-.2.1-.4.1-.6s0-.5-.1-.6c0-.2-.2-.3-.4-.4-.1,0-.3-.1-.5-.2s-.4,0-.6,0h-1.4v2.5h1.4Z"/>
      <path class="st2" d="M129,60.6v3.2h3.3v-3.2h1.8v8.2h-1.8v-3.5h-3.3v3.5h-1.8v-8.2h1.8Z"/>
      <path class="st2" d="M142.3,60.6v1.5h-4.3v1.8h4v1.4h-4v2h4.4v1.5h-6.2v-8.2h6.1Z"/>
      <path class="st2" d="M145.9,60.6l3.4,5.5h0v-5.5h1.7v8.2h-1.8l-3.4-5.5h0v5.5h-1.7v-8.2h1.8Z"/>
      <path class="st2" d="M153,63c.2-.5.4-1,.8-1.4s.8-.7,1.3-.9c.5-.2,1.1-.3,1.7-.3s1.2.1,1.7.3c.5.2.9.5,1.3.9.3.4.6.8.8,1.4.2.5.3,1.1.3,1.7s0,1.2-.3,1.7c-.2.5-.4,1-.8,1.4-.3.4-.8.7-1.3.9s-1.1.3-1.7.3-1.2-.1-1.7-.3-.9-.5-1.3-.9c-.3-.4-.6-.8-.8-1.4-.2-.5-.3-1.1-.3-1.7s0-1.2.3-1.7ZM154.6,65.7c0,.3.2.6.4.9.2.3.4.5.7.6.3.2.6.2,1,.2s.8,0,1-.2c.3-.2.5-.4.7-.6.2-.3.3-.6.4-.9,0-.3.1-.7.1-1s0-.7-.1-1c0-.3-.2-.6-.4-.9-.2-.3-.4-.5-.7-.6-.3-.2-.6-.2-1-.2s-.8,0-1,.2c-.3.2-.5.4-.7.6-.2.3-.3.6-.4.9,0,.3-.1.7-.1,1s0,.7.1,1Z"/>
      <path class="st2" d="M164.3,60.6v6.7h4v1.5h-5.8v-8.2h1.8Z"/>
    </g>
    <g>
      <path class="st0" d="M143.8,36.8v-3.2h21.1v-14.9h-21v-2.8h24.1V1h-54.4l-5.9,9.3-5.8-9.3H30.1s-6.5,12.2-6.5,12.2V1H.6s0,50.6,0,50.6h22.9v-14.4l9.2,14.4h26.7s-3.8-5.6-3.8-5.6h22.7v5.6h90v-14.8h-24.5ZM105.9,11.5l1.9,3.1,1.9-3.1,5.2-8.2h20.4l-17.5,27.6v18.5h-18.8v-18.9L81.9,3.3h18.9s5.1,8.2,5.1,8.2ZM33.9,49.4l-8.5-13.4-4.2-6.5v19.9H2.9V3.3h18.5c0,0,0,19.4,0,19.4l4.3-8.3,5.9-11h20.8s-12.7,22.1-12.7,22.1l11.8,18.4h0,0c0,0,0,.1,0,.1l.3.5,2,2.9,1.4,2.1h-21.2ZM78.3,43.7h-24.2l-.8-1.1-11.2-17.3L54.8,3.3h24.4s17.4,27.8,17.4,27.8v18.3h-16v-5.6h-2.3ZM166,49.4h-46.1v-17.8l18-28.3h27.8v10.4h-24.1v7.3h21v10.4h-21.1v7.7h24.5v10.3Z"/>
      <path class="st0" d="M56.7,32.2h21.4l-11.3-17.7-10.1,17.7ZM74,30h-13.4l6.3-11.1,7.1,11.1Z"/>
    </g>
  </g>
</svg>